<mxfile host="app.diagrams.net" modified="2024-04-28T15:22:53.039Z" agent="Mozilla/5.0 (Windows NT 10.0; Win64; x64; rv:125.0) Gecko/20100101 Firefox/125.0" etag="IJso3lYritGkfC-8t4KJ" version="24.3.1" type="device">
  <diagram name="Page-1" id="cONGlJ_Pj6FLF5-QRet2">
    <mxGraphModel dx="1284" dy="852" grid="1" gridSize="10" guides="1" tooltips="1" connect="1" arrows="1" fold="1" page="1" pageScale="1" pageWidth="850" pageHeight="1100" math="0" shadow="0">
      <root>
        <mxCell id="0" />
        <mxCell id="1" parent="0" />
        <mxCell id="VGTzZtAvKs6byzSVhxkK-57" style="edgeStyle=orthogonalEdgeStyle;rounded=0;orthogonalLoop=1;jettySize=auto;html=1;exitX=0.5;exitY=1;exitDx=0;exitDy=0;entryX=0.5;entryY=0;entryDx=0;entryDy=0;spacing=2;fontSize=18;align=center;strokeWidth=2;" edge="1" parent="1" source="VGTzZtAvKs6byzSVhxkK-2" target="VGTzZtAvKs6byzSVhxkK-36">
          <mxGeometry relative="1" as="geometry" />
        </mxCell>
        <mxCell id="VGTzZtAvKs6byzSVhxkK-2" value="entry" style="rounded=1;whiteSpace=wrap;html=1;strokeWidth=2;fontSize=18;spacing=2;align=center;" vertex="1" parent="1">
          <mxGeometry x="280" y="220" width="120" height="60" as="geometry" />
        </mxCell>
        <mxCell id="VGTzZtAvKs6byzSVhxkK-3" value="exit" style="rounded=1;whiteSpace=wrap;html=1;strokeWidth=2;fontSize=18;spacing=2;align=center;" vertex="1" parent="1">
          <mxGeometry x="450" y="810" width="80" height="30" as="geometry" />
        </mxCell>
        <mxCell id="VGTzZtAvKs6byzSVhxkK-14" style="edgeStyle=orthogonalEdgeStyle;rounded=0;orthogonalLoop=1;jettySize=auto;html=1;exitX=0.5;exitY=1;exitDx=0;exitDy=0;entryX=0.5;entryY=0;entryDx=0;entryDy=0;strokeWidth=2;fontSize=18;spacing=2;align=center;" edge="1" parent="1" source="VGTzZtAvKs6byzSVhxkK-4" target="VGTzZtAvKs6byzSVhxkK-8">
          <mxGeometry relative="1" as="geometry">
            <Array as="points">
              <mxPoint x="338" y="403" />
              <mxPoint x="298" y="403" />
            </Array>
          </mxGeometry>
        </mxCell>
        <mxCell id="VGTzZtAvKs6byzSVhxkK-15" style="edgeStyle=orthogonalEdgeStyle;rounded=0;orthogonalLoop=1;jettySize=auto;html=1;exitX=0.5;exitY=1;exitDx=0;exitDy=0;entryX=0.5;entryY=0;entryDx=0;entryDy=0;strokeWidth=2;fontSize=18;spacing=2;align=center;" edge="1" parent="1" source="VGTzZtAvKs6byzSVhxkK-4" target="VGTzZtAvKs6byzSVhxkK-5">
          <mxGeometry relative="1" as="geometry">
            <Array as="points">
              <mxPoint x="338" y="403" />
              <mxPoint x="388" y="403" />
            </Array>
          </mxGeometry>
        </mxCell>
        <mxCell id="VGTzZtAvKs6byzSVhxkK-4" value="if" style="rounded=0;whiteSpace=wrap;html=1;strokeWidth=2;fontSize=18;spacing=2;align=center;" vertex="1" parent="1">
          <mxGeometry x="279" y="353" width="120" height="40" as="geometry" />
        </mxCell>
        <mxCell id="VGTzZtAvKs6byzSVhxkK-17" style="edgeStyle=orthogonalEdgeStyle;rounded=0;orthogonalLoop=1;jettySize=auto;html=1;exitX=0.5;exitY=1;exitDx=0;exitDy=0;entryX=0.5;entryY=0;entryDx=0;entryDy=0;strokeWidth=2;fontSize=18;spacing=2;align=center;" edge="1" parent="1" source="VGTzZtAvKs6byzSVhxkK-5" target="VGTzZtAvKs6byzSVhxkK-9">
          <mxGeometry relative="1" as="geometry" />
        </mxCell>
        <mxCell id="VGTzZtAvKs6byzSVhxkK-5" value="a = k*2" style="rounded=0;whiteSpace=wrap;html=1;strokeWidth=2;fontSize=18;spacing=2;align=center;" vertex="1" parent="1">
          <mxGeometry x="348" y="423" width="80" height="40" as="geometry" />
        </mxCell>
        <mxCell id="VGTzZtAvKs6byzSVhxkK-55" style="edgeStyle=orthogonalEdgeStyle;rounded=0;orthogonalLoop=1;jettySize=auto;html=1;exitX=0.5;exitY=1;exitDx=0;exitDy=0;entryX=0.5;entryY=0;entryDx=0;entryDy=0;spacing=2;fontSize=18;align=center;strokeWidth=2;" edge="1" parent="1" source="VGTzZtAvKs6byzSVhxkK-6" target="VGTzZtAvKs6byzSVhxkK-10">
          <mxGeometry relative="1" as="geometry" />
        </mxCell>
        <mxCell id="VGTzZtAvKs6byzSVhxkK-6" value="x = 5" style="rounded=0;whiteSpace=wrap;html=1;strokeWidth=2;fontSize=18;spacing=2;align=center;" vertex="1" parent="1">
          <mxGeometry x="258" y="483" width="80" height="40" as="geometry" />
        </mxCell>
        <mxCell id="VGTzZtAvKs6byzSVhxkK-16" style="edgeStyle=orthogonalEdgeStyle;rounded=0;orthogonalLoop=1;jettySize=auto;html=1;exitX=0.5;exitY=1;exitDx=0;exitDy=0;entryX=0.5;entryY=0;entryDx=0;entryDy=0;strokeWidth=2;fontSize=18;spacing=2;align=center;" edge="1" parent="1" source="VGTzZtAvKs6byzSVhxkK-8" target="VGTzZtAvKs6byzSVhxkK-6">
          <mxGeometry relative="1" as="geometry" />
        </mxCell>
        <mxCell id="VGTzZtAvKs6byzSVhxkK-8" value="a = k+2" style="rounded=0;whiteSpace=wrap;html=1;strokeWidth=2;fontSize=18;spacing=2;align=center;" vertex="1" parent="1">
          <mxGeometry x="258" y="423" width="80" height="40" as="geometry" />
        </mxCell>
        <mxCell id="VGTzZtAvKs6byzSVhxkK-18" style="edgeStyle=orthogonalEdgeStyle;rounded=0;orthogonalLoop=1;jettySize=auto;html=1;exitX=0.5;exitY=1;exitDx=0;exitDy=0;entryX=0.5;entryY=0;entryDx=0;entryDy=0;strokeWidth=2;fontSize=18;spacing=2;align=center;" edge="1" parent="1" source="VGTzZtAvKs6byzSVhxkK-9" target="VGTzZtAvKs6byzSVhxkK-10">
          <mxGeometry relative="1" as="geometry" />
        </mxCell>
        <mxCell id="VGTzZtAvKs6byzSVhxkK-9" value="x = 8" style="rounded=0;whiteSpace=wrap;html=1;strokeWidth=2;fontSize=18;spacing=2;align=center;" vertex="1" parent="1">
          <mxGeometry x="348" y="483" width="80" height="40" as="geometry" />
        </mxCell>
        <mxCell id="VGTzZtAvKs6byzSVhxkK-54" style="edgeStyle=orthogonalEdgeStyle;rounded=0;orthogonalLoop=1;jettySize=auto;html=1;exitX=0.5;exitY=1;exitDx=0;exitDy=0;entryX=0.5;entryY=0;entryDx=0;entryDy=0;spacing=2;fontSize=18;align=center;strokeWidth=2;" edge="1" parent="1" source="VGTzZtAvKs6byzSVhxkK-10" target="VGTzZtAvKs6byzSVhxkK-37">
          <mxGeometry relative="1" as="geometry" />
        </mxCell>
        <mxCell id="VGTzZtAvKs6byzSVhxkK-10" value="k = a" style="rounded=0;whiteSpace=wrap;html=1;strokeWidth=2;fontSize=18;spacing=2;align=center;" vertex="1" parent="1">
          <mxGeometry x="308" y="563" width="80" height="40" as="geometry" />
        </mxCell>
        <mxCell id="VGTzZtAvKs6byzSVhxkK-11" style="edgeStyle=orthogonalEdgeStyle;rounded=0;orthogonalLoop=1;jettySize=auto;html=1;exitX=0.5;exitY=1;exitDx=0;exitDy=0;strokeWidth=2;fontSize=18;spacing=2;align=center;" edge="1" parent="1" source="VGTzZtAvKs6byzSVhxkK-9" target="VGTzZtAvKs6byzSVhxkK-9">
          <mxGeometry relative="1" as="geometry" />
        </mxCell>
        <mxCell id="VGTzZtAvKs6byzSVhxkK-25" value="&lt;b style=&quot;font-size: 18px;&quot;&gt;&lt;font face=&quot;Garamond&quot; style=&quot;font-size: 18px;&quot;&gt;&lt;i style=&quot;font-size: 18px;&quot;&gt;BB2&lt;/i&gt;&lt;/font&gt;&lt;/b&gt;" style="text;html=1;align=center;verticalAlign=middle;whiteSpace=wrap;rounded=0;fontColor=#7F00FF;spacing=2;fontSize=18;strokeWidth=2;" vertex="1" parent="1">
          <mxGeometry x="219" y="300" width="60" height="30" as="geometry" />
        </mxCell>
        <mxCell id="VGTzZtAvKs6byzSVhxkK-26" value="&lt;b style=&quot;font-size: 18px;&quot;&gt;&lt;font face=&quot;Garamond&quot; style=&quot;font-size: 18px;&quot;&gt;&lt;i style=&quot;font-size: 18px;&quot;&gt;BB3&lt;/i&gt;&lt;/font&gt;&lt;/b&gt;" style="text;html=1;align=center;verticalAlign=middle;whiteSpace=wrap;rounded=0;fontColor=#7F00FF;spacing=2;fontSize=18;strokeWidth=2;" vertex="1" parent="1">
          <mxGeometry x="220" y="358" width="60" height="30" as="geometry" />
        </mxCell>
        <mxCell id="VGTzZtAvKs6byzSVhxkK-27" value="&lt;b style=&quot;font-size: 18px;&quot;&gt;&lt;font face=&quot;Garamond&quot; style=&quot;font-size: 18px;&quot;&gt;&lt;i style=&quot;font-size: 18px;&quot;&gt;BB1&lt;/i&gt;&lt;/font&gt;&lt;/b&gt;" style="text;html=1;align=center;verticalAlign=middle;whiteSpace=wrap;rounded=0;fontColor=#7F00FF;spacing=2;fontSize=18;strokeWidth=2;" vertex="1" parent="1">
          <mxGeometry x="220" y="235" width="60" height="30" as="geometry" />
        </mxCell>
        <mxCell id="VGTzZtAvKs6byzSVhxkK-29" value="&lt;b style=&quot;font-size: 18px;&quot;&gt;&lt;font face=&quot;Garamond&quot; style=&quot;font-size: 18px;&quot;&gt;&lt;i style=&quot;font-size: 18px;&quot;&gt;BB4&lt;/i&gt;&lt;/font&gt;&lt;/b&gt;" style="text;html=1;align=center;verticalAlign=middle;whiteSpace=wrap;rounded=0;fontColor=#7F00FF;spacing=2;fontSize=18;strokeWidth=2;" vertex="1" parent="1">
          <mxGeometry x="198" y="428" width="60" height="30" as="geometry" />
        </mxCell>
        <mxCell id="VGTzZtAvKs6byzSVhxkK-31" value="&lt;b style=&quot;font-size: 18px;&quot;&gt;&lt;font face=&quot;Garamond&quot; style=&quot;font-size: 18px;&quot;&gt;&lt;i style=&quot;font-size: 18px;&quot;&gt;BB5&lt;/i&gt;&lt;/font&gt;&lt;/b&gt;" style="text;html=1;align=center;verticalAlign=middle;whiteSpace=wrap;rounded=0;fontColor=#7F00FF;spacing=2;fontSize=18;strokeWidth=2;" vertex="1" parent="1">
          <mxGeometry x="198" y="483" width="60" height="30" as="geometry" />
        </mxCell>
        <mxCell id="VGTzZtAvKs6byzSVhxkK-32" value="&lt;b style=&quot;font-size: 18px;&quot;&gt;&lt;font face=&quot;Garamond&quot; style=&quot;font-size: 18px;&quot;&gt;&lt;i style=&quot;font-size: 18px;&quot;&gt;BB13&lt;/i&gt;&lt;/font&gt;&lt;/b&gt;" style="text;html=1;align=center;verticalAlign=middle;whiteSpace=wrap;rounded=0;fontColor=#7F00FF;spacing=2;fontSize=18;strokeWidth=2;" vertex="1" parent="1">
          <mxGeometry x="384" y="865" width="60" height="30" as="geometry" />
        </mxCell>
        <mxCell id="VGTzZtAvKs6byzSVhxkK-33" value="&lt;b style=&quot;font-size: 18px;&quot;&gt;&lt;font face=&quot;Garamond&quot; style=&quot;font-size: 18px;&quot;&gt;&lt;i style=&quot;font-size: 18px;&quot;&gt;BB7&lt;/i&gt;&lt;/font&gt;&lt;/b&gt;" style="text;html=1;align=center;verticalAlign=middle;whiteSpace=wrap;rounded=0;fontColor=#7F00FF;spacing=2;fontSize=18;strokeWidth=2;" vertex="1" parent="1">
          <mxGeometry x="428" y="488" width="60" height="30" as="geometry" />
        </mxCell>
        <mxCell id="VGTzZtAvKs6byzSVhxkK-56" style="edgeStyle=orthogonalEdgeStyle;rounded=0;orthogonalLoop=1;jettySize=auto;html=1;exitX=0.5;exitY=1;exitDx=0;exitDy=0;entryX=0.5;entryY=0;entryDx=0;entryDy=0;spacing=2;fontSize=18;align=center;strokeWidth=2;" edge="1" parent="1" source="VGTzZtAvKs6byzSVhxkK-36" target="VGTzZtAvKs6byzSVhxkK-4">
          <mxGeometry relative="1" as="geometry" />
        </mxCell>
        <mxCell id="VGTzZtAvKs6byzSVhxkK-36" value="k = 2" style="rounded=0;whiteSpace=wrap;html=1;strokeWidth=2;fontSize=18;spacing=2;align=center;" vertex="1" parent="1">
          <mxGeometry x="280" y="295" width="120" height="40" as="geometry" />
        </mxCell>
        <mxCell id="VGTzZtAvKs6byzSVhxkK-50" style="edgeStyle=orthogonalEdgeStyle;rounded=0;orthogonalLoop=1;jettySize=auto;html=1;exitX=1;exitY=0.75;exitDx=0;exitDy=0;entryX=0.5;entryY=0;entryDx=0;entryDy=0;spacing=2;fontSize=18;align=center;strokeWidth=2;" edge="1" parent="1" source="VGTzZtAvKs6byzSVhxkK-37" target="VGTzZtAvKs6byzSVhxkK-40">
          <mxGeometry relative="1" as="geometry" />
        </mxCell>
        <mxCell id="VGTzZtAvKs6byzSVhxkK-53" style="edgeStyle=orthogonalEdgeStyle;rounded=0;orthogonalLoop=1;jettySize=auto;html=1;exitX=0.5;exitY=1;exitDx=0;exitDy=0;entryX=0.5;entryY=0;entryDx=0;entryDy=0;spacing=2;fontSize=18;align=center;strokeWidth=2;" edge="1" parent="1" source="VGTzZtAvKs6byzSVhxkK-37" target="VGTzZtAvKs6byzSVhxkK-38">
          <mxGeometry relative="1" as="geometry" />
        </mxCell>
        <mxCell id="VGTzZtAvKs6byzSVhxkK-37" value="while" style="rounded=0;whiteSpace=wrap;html=1;strokeWidth=2;fontSize=18;spacing=2;align=center;" vertex="1" parent="1">
          <mxGeometry x="308" y="618" width="80" height="40" as="geometry" />
        </mxCell>
        <mxCell id="VGTzZtAvKs6byzSVhxkK-48" style="edgeStyle=orthogonalEdgeStyle;rounded=0;orthogonalLoop=1;jettySize=auto;html=1;exitX=0.5;exitY=1;exitDx=0;exitDy=0;entryX=0.5;entryY=0;entryDx=0;entryDy=0;spacing=2;fontSize=18;align=center;strokeWidth=2;" edge="1" parent="1" source="VGTzZtAvKs6byzSVhxkK-38" target="VGTzZtAvKs6byzSVhxkK-39">
          <mxGeometry relative="1" as="geometry" />
        </mxCell>
        <mxCell id="VGTzZtAvKs6byzSVhxkK-38" value="b = 2" style="rounded=0;whiteSpace=wrap;html=1;strokeWidth=2;fontSize=18;spacing=2;align=center;" vertex="1" parent="1">
          <mxGeometry x="308" y="680" width="80" height="40" as="geometry" />
        </mxCell>
        <mxCell id="VGTzZtAvKs6byzSVhxkK-47" style="edgeStyle=orthogonalEdgeStyle;rounded=0;orthogonalLoop=1;jettySize=auto;html=1;exitX=0.5;exitY=1;exitDx=0;exitDy=0;entryX=0.5;entryY=0;entryDx=0;entryDy=0;spacing=2;fontSize=18;align=center;strokeWidth=2;" edge="1" parent="1" source="VGTzZtAvKs6byzSVhxkK-39" target="VGTzZtAvKs6byzSVhxkK-42">
          <mxGeometry relative="1" as="geometry" />
        </mxCell>
        <mxCell id="VGTzZtAvKs6byzSVhxkK-39" value="x = a + k" style="rounded=0;whiteSpace=wrap;html=1;strokeWidth=2;fontSize=18;spacing=2;align=center;" vertex="1" parent="1">
          <mxGeometry x="308" y="740" width="80" height="40" as="geometry" />
        </mxCell>
        <mxCell id="VGTzZtAvKs6byzSVhxkK-58" style="edgeStyle=orthogonalEdgeStyle;rounded=0;orthogonalLoop=1;jettySize=auto;html=1;exitX=0.5;exitY=1;exitDx=0;exitDy=0;entryX=0.5;entryY=0;entryDx=0;entryDy=0;spacing=2;fontSize=18;align=center;strokeWidth=2;" edge="1" parent="1" source="VGTzZtAvKs6byzSVhxkK-40" target="VGTzZtAvKs6byzSVhxkK-3">
          <mxGeometry relative="1" as="geometry" />
        </mxCell>
        <mxCell id="VGTzZtAvKs6byzSVhxkK-40" value="print(a+k)" style="rounded=0;whiteSpace=wrap;html=1;strokeWidth=2;fontSize=18;spacing=2;align=center;" vertex="1" parent="1">
          <mxGeometry x="450" y="740" width="80" height="40" as="geometry" />
        </mxCell>
        <mxCell id="VGTzZtAvKs6byzSVhxkK-52" style="edgeStyle=orthogonalEdgeStyle;rounded=0;orthogonalLoop=1;jettySize=auto;html=1;exitX=0;exitY=0.5;exitDx=0;exitDy=0;entryX=0;entryY=0.5;entryDx=0;entryDy=0;spacing=2;fontSize=18;align=center;strokeWidth=2;" edge="1" parent="1" source="VGTzZtAvKs6byzSVhxkK-41" target="VGTzZtAvKs6byzSVhxkK-37">
          <mxGeometry relative="1" as="geometry">
            <Array as="points">
              <mxPoint x="308" y="890" />
              <mxPoint x="230" y="890" />
              <mxPoint x="230" y="638" />
            </Array>
          </mxGeometry>
        </mxCell>
        <mxCell id="VGTzZtAvKs6byzSVhxkK-41" value="k ++" style="rounded=0;whiteSpace=wrap;html=1;strokeWidth=2;fontSize=18;spacing=2;align=center;" vertex="1" parent="1">
          <mxGeometry x="308" y="860" width="80" height="40" as="geometry" />
        </mxCell>
        <mxCell id="VGTzZtAvKs6byzSVhxkK-46" style="edgeStyle=orthogonalEdgeStyle;rounded=0;orthogonalLoop=1;jettySize=auto;html=1;exitX=0.5;exitY=1;exitDx=0;exitDy=0;entryX=0.5;entryY=0;entryDx=0;entryDy=0;spacing=2;fontSize=18;align=center;strokeWidth=2;" edge="1" parent="1" source="VGTzZtAvKs6byzSVhxkK-42" target="VGTzZtAvKs6byzSVhxkK-41">
          <mxGeometry relative="1" as="geometry" />
        </mxCell>
        <mxCell id="VGTzZtAvKs6byzSVhxkK-42" value="y = a*b" style="rounded=0;whiteSpace=wrap;html=1;strokeWidth=2;fontSize=18;spacing=2;align=center;" vertex="1" parent="1">
          <mxGeometry x="308" y="800" width="80" height="40" as="geometry" />
        </mxCell>
        <mxCell id="VGTzZtAvKs6byzSVhxkK-61" value="&lt;b style=&quot;font-size: 18px;&quot;&gt;&lt;font face=&quot;Garamond&quot; style=&quot;font-size: 18px;&quot;&gt;&lt;i style=&quot;font-size: 18px;&quot;&gt;BB6&lt;/i&gt;&lt;/font&gt;&lt;/b&gt;" style="text;html=1;align=center;verticalAlign=middle;whiteSpace=wrap;rounded=0;fontColor=#7F00FF;spacing=2;fontSize=18;strokeWidth=2;" vertex="1" parent="1">
          <mxGeometry x="428" y="428" width="60" height="30" as="geometry" />
        </mxCell>
        <mxCell id="VGTzZtAvKs6byzSVhxkK-63" value="&lt;b style=&quot;font-size: 18px;&quot;&gt;&lt;font face=&quot;Garamond&quot; style=&quot;font-size: 18px;&quot;&gt;&lt;i style=&quot;font-size: 18px;&quot;&gt;BB8&lt;/i&gt;&lt;/font&gt;&lt;/b&gt;" style="text;html=1;align=center;verticalAlign=middle;whiteSpace=wrap;rounded=0;fontColor=#7F00FF;spacing=2;fontSize=18;strokeWidth=2;" vertex="1" parent="1">
          <mxGeometry x="248" y="568" width="60" height="30" as="geometry" />
        </mxCell>
        <mxCell id="VGTzZtAvKs6byzSVhxkK-67" value="&lt;font face=&quot;Garamond&quot; style=&quot;font-size: 18px;&quot;&gt;&lt;b style=&quot;font-size: 18px;&quot;&gt;&lt;i style=&quot;font-size: 18px;&quot;&gt;BB9&lt;/i&gt;&lt;/b&gt;&lt;/font&gt;" style="text;html=1;align=center;verticalAlign=middle;whiteSpace=wrap;rounded=0;fontColor=#7F00FF;spacing=2;fontSize=18;strokeWidth=2;" vertex="1" parent="1">
          <mxGeometry x="384" y="619" width="60" height="30" as="geometry" />
        </mxCell>
        <mxCell id="VGTzZtAvKs6byzSVhxkK-69" value="&lt;b style=&quot;font-size: 18px;&quot;&gt;&lt;font face=&quot;Garamond&quot; style=&quot;font-size: 18px;&quot;&gt;&lt;i style=&quot;font-size: 18px;&quot;&gt;BB10&lt;/i&gt;&lt;/font&gt;&lt;/b&gt;" style="text;html=1;align=center;verticalAlign=middle;whiteSpace=wrap;rounded=0;fontColor=#7F00FF;spacing=2;fontSize=18;strokeWidth=2;" vertex="1" parent="1">
          <mxGeometry x="250" y="685" width="60" height="30" as="geometry" />
        </mxCell>
        <mxCell id="VGTzZtAvKs6byzSVhxkK-70" value="&lt;b style=&quot;font-size: 18px;&quot;&gt;&lt;font face=&quot;Garamond&quot; style=&quot;font-size: 18px;&quot;&gt;&lt;i style=&quot;font-size: 18px;&quot;&gt;BB11&lt;/i&gt;&lt;/font&gt;&lt;/b&gt;" style="text;html=1;align=center;verticalAlign=middle;whiteSpace=wrap;rounded=0;fontColor=#7F00FF;spacing=2;fontSize=18;strokeWidth=2;" vertex="1" parent="1">
          <mxGeometry x="250" y="745" width="60" height="30" as="geometry" />
        </mxCell>
        <mxCell id="VGTzZtAvKs6byzSVhxkK-71" value="&lt;b style=&quot;font-size: 18px;&quot;&gt;&lt;font face=&quot;Garamond&quot; style=&quot;font-size: 18px;&quot;&gt;&lt;i style=&quot;font-size: 18px;&quot;&gt;BB12&lt;/i&gt;&lt;/font&gt;&lt;/b&gt;" style="text;html=1;align=center;verticalAlign=middle;whiteSpace=wrap;rounded=0;fontColor=#7F00FF;spacing=2;fontSize=18;strokeWidth=2;" vertex="1" parent="1">
          <mxGeometry x="251" y="805" width="60" height="30" as="geometry" />
        </mxCell>
        <mxCell id="VGTzZtAvKs6byzSVhxkK-72" value="&lt;b style=&quot;font-size: 18px;&quot;&gt;&lt;font face=&quot;Garamond&quot; style=&quot;font-size: 18px;&quot;&gt;&lt;i style=&quot;font-size: 18px;&quot;&gt;BB14&lt;/i&gt;&lt;/font&gt;&lt;/b&gt;" style="text;html=1;align=center;verticalAlign=middle;whiteSpace=wrap;rounded=0;fontColor=#7F00FF;spacing=2;fontSize=18;strokeWidth=2;" vertex="1" parent="1">
          <mxGeometry x="395" y="745" width="60" height="30" as="geometry" />
        </mxCell>
        <mxCell id="VGTzZtAvKs6byzSVhxkK-73" value="&lt;b style=&quot;font-size: 18px;&quot;&gt;&lt;font face=&quot;Garamond&quot; style=&quot;font-size: 18px;&quot;&gt;&lt;i style=&quot;font-size: 18px;&quot;&gt;BB15&lt;/i&gt;&lt;/font&gt;&lt;/b&gt;" style="text;html=1;align=center;verticalAlign=middle;whiteSpace=wrap;rounded=0;fontColor=#7F00FF;spacing=2;fontSize=18;strokeWidth=2;" vertex="1" parent="1">
          <mxGeometry x="394" y="810" width="60" height="30" as="geometry" />
        </mxCell>
        <mxCell id="VGTzZtAvKs6byzSVhxkK-86" style="edgeStyle=orthogonalEdgeStyle;rounded=0;orthogonalLoop=1;jettySize=auto;html=1;exitX=0.5;exitY=1;exitDx=0;exitDy=0;fontSize=26;" edge="1" parent="1" source="VGTzZtAvKs6byzSVhxkK-75" target="VGTzZtAvKs6byzSVhxkK-77">
          <mxGeometry relative="1" as="geometry" />
        </mxCell>
        <mxCell id="VGTzZtAvKs6byzSVhxkK-87" style="edgeStyle=orthogonalEdgeStyle;rounded=0;orthogonalLoop=1;jettySize=auto;html=1;exitX=0.5;exitY=1;exitDx=0;exitDy=0;fontSize=26;" edge="1" parent="1" source="VGTzZtAvKs6byzSVhxkK-75" target="VGTzZtAvKs6byzSVhxkK-76">
          <mxGeometry relative="1" as="geometry" />
        </mxCell>
        <mxCell id="VGTzZtAvKs6byzSVhxkK-75" value="A" style="rounded=1;whiteSpace=wrap;html=1;fontSize=26;" vertex="1" parent="1">
          <mxGeometry x="140" y="1000" width="120" height="60" as="geometry" />
        </mxCell>
        <mxCell id="VGTzZtAvKs6byzSVhxkK-88" style="edgeStyle=orthogonalEdgeStyle;rounded=0;orthogonalLoop=1;jettySize=auto;html=1;exitX=0.5;exitY=1;exitDx=0;exitDy=0;fontSize=26;" edge="1" parent="1" source="VGTzZtAvKs6byzSVhxkK-76" target="VGTzZtAvKs6byzSVhxkK-79">
          <mxGeometry relative="1" as="geometry" />
        </mxCell>
        <mxCell id="VGTzZtAvKs6byzSVhxkK-89" style="edgeStyle=orthogonalEdgeStyle;rounded=0;orthogonalLoop=1;jettySize=auto;html=1;exitX=0.5;exitY=1;exitDx=0;exitDy=0;fontSize=26;" edge="1" parent="1" source="VGTzZtAvKs6byzSVhxkK-76" target="VGTzZtAvKs6byzSVhxkK-78">
          <mxGeometry relative="1" as="geometry" />
        </mxCell>
        <mxCell id="VGTzZtAvKs6byzSVhxkK-76" value="C" style="rounded=1;whiteSpace=wrap;html=1;fontSize=26;" vertex="1" parent="1">
          <mxGeometry x="248" y="1100" width="120" height="60" as="geometry" />
        </mxCell>
        <mxCell id="VGTzZtAvKs6byzSVhxkK-85" style="edgeStyle=orthogonalEdgeStyle;rounded=0;orthogonalLoop=1;jettySize=auto;html=1;exitX=0.5;exitY=1;exitDx=0;exitDy=0;entryX=0.5;entryY=0;entryDx=0;entryDy=0;fontSize=26;" edge="1" parent="1" source="VGTzZtAvKs6byzSVhxkK-77" target="VGTzZtAvKs6byzSVhxkK-81">
          <mxGeometry relative="1" as="geometry" />
        </mxCell>
        <mxCell id="VGTzZtAvKs6byzSVhxkK-77" value="B" style="rounded=1;whiteSpace=wrap;html=1;fontSize=26;" vertex="1" parent="1">
          <mxGeometry x="40" y="1100" width="120" height="60" as="geometry" />
        </mxCell>
        <mxCell id="VGTzZtAvKs6byzSVhxkK-90" style="edgeStyle=orthogonalEdgeStyle;rounded=0;orthogonalLoop=1;jettySize=auto;html=1;exitX=0.5;exitY=1;exitDx=0;exitDy=0;entryX=0.5;entryY=0;entryDx=0;entryDy=0;fontSize=26;" edge="1" parent="1" source="VGTzZtAvKs6byzSVhxkK-78" target="VGTzZtAvKs6byzSVhxkK-80">
          <mxGeometry relative="1" as="geometry" />
        </mxCell>
        <mxCell id="VGTzZtAvKs6byzSVhxkK-78" value="D" style="rounded=1;whiteSpace=wrap;html=1;fontSize=26;" vertex="1" parent="1">
          <mxGeometry x="168" y="1200" width="120" height="60" as="geometry" />
        </mxCell>
        <mxCell id="VGTzZtAvKs6byzSVhxkK-91" style="edgeStyle=orthogonalEdgeStyle;rounded=0;orthogonalLoop=1;jettySize=auto;html=1;exitX=0.5;exitY=1;exitDx=0;exitDy=0;fontSize=26;" edge="1" parent="1" source="VGTzZtAvKs6byzSVhxkK-79">
          <mxGeometry relative="1" as="geometry">
            <mxPoint x="310" y="1300" as="targetPoint" />
          </mxGeometry>
        </mxCell>
        <mxCell id="VGTzZtAvKs6byzSVhxkK-79" value="E" style="rounded=1;whiteSpace=wrap;html=1;fontSize=26;" vertex="1" parent="1">
          <mxGeometry x="334" y="1200" width="120" height="60" as="geometry" />
        </mxCell>
        <mxCell id="VGTzZtAvKs6byzSVhxkK-84" style="edgeStyle=orthogonalEdgeStyle;rounded=0;orthogonalLoop=1;jettySize=auto;html=1;exitX=0;exitY=0.5;exitDx=0;exitDy=0;entryX=0.5;entryY=0;entryDx=0;entryDy=0;fontSize=26;" edge="1" parent="1" source="VGTzZtAvKs6byzSVhxkK-80" target="VGTzZtAvKs6byzSVhxkK-81">
          <mxGeometry relative="1" as="geometry" />
        </mxCell>
        <mxCell id="VGTzZtAvKs6byzSVhxkK-80" value="F" style="rounded=1;whiteSpace=wrap;html=1;fontSize=26;" vertex="1" parent="1">
          <mxGeometry x="250" y="1300" width="120" height="60" as="geometry" />
        </mxCell>
        <mxCell id="VGTzZtAvKs6byzSVhxkK-81" value="G" style="rounded=1;whiteSpace=wrap;html=1;fontSize=26;" vertex="1" parent="1">
          <mxGeometry x="78" y="1370" width="120" height="60" as="geometry" />
        </mxCell>
        <mxCell id="VGTzZtAvKs6byzSVhxkK-92" value="&lt;font style=&quot;font-size: 18px;&quot;&gt;DOM[F] = {A,C,F}&lt;br style=&quot;font-size: 18px;&quot;&gt;&lt;/font&gt;" style="text;html=1;align=center;verticalAlign=middle;whiteSpace=wrap;rounded=0;fontFamily=Times New Roman;fontSize=18;fontStyle=2" vertex="1" parent="1">
          <mxGeometry x="228" y="1390" width="172" height="30" as="geometry" />
        </mxCell>
      </root>
    </mxGraphModel>
  </diagram>
</mxfile>
